<svg version="1.1" id="Layer_1" xmlns="http://www.w3.org/2000/svg" xmlns:xlink="http://www.w3.org/1999/xlink" x="0px" y="0px"
	 width="330%" viewBox="0 0 1024 864" enable-background="new 0 0 1024 864" xml:space="preserve">
<path fill="#000000" opacity="1.000000" stroke="none" 
	d="
M555.462769,781.432129 
	C564.543030,771.286621 574.553650,762.958679 586.560059,757.032776 
	C591.297607,754.694458 593.592590,749.592163 596.998840,745.697388 
	C593.355164,747.807983 591.324341,752.271118 586.899231,753.080261 
	C585.678406,751.958008 585.848633,750.805359 586.734497,750.287598 
	C595.039917,745.433289 599.750793,737.020630 606.432007,730.570435 
	C608.349976,728.718689 610.285156,726.882568 612.271790,725.105530 
	C613.003052,724.451294 614.108398,723.349060 614.698364,723.536499 
	C620.976929,725.530945 621.493530,719.439941 624.659607,716.935425 
	C630.248413,712.514526 632.225769,705.808533 636.418274,700.564514 
	C638.649231,697.774048 641.049255,695.339722 644.450867,694.083191 
	C647.723877,692.874207 650.010071,690.484192 652.030701,687.788330 
	C656.353027,682.021423 661.348572,676.896545 666.952820,672.390625 
	C672.846375,667.652100 677.342407,661.794800 681.883362,655.781860 
	C688.809021,646.611084 697.459412,638.895691 705.467163,630.646545 
	C714.851379,620.979431 724.831970,611.900940 733.084412,601.125183 
	C735.945251,597.389587 738.456909,592.963379 744.850220,592.672913 
	C747.997192,592.529846 750.540955,587.673889 752.446106,584.272339 
	C753.077698,583.144653 753.320557,581.795654 754.503418,581.052734 
	C765.326111,574.255188 773.880371,565.141602 781.933899,555.311096 
	C791.407654,543.746887 803.428772,534.703674 814.159790,524.376953 
	C823.607727,515.285095 833.704407,506.911316 842.355713,496.898102 
	C848.120422,490.225983 854.275391,483.421661 862.190613,479.011322 
	C867.080994,476.286469 869.288269,470.355194 875.380798,469.062408 
	C880.760986,467.920776 885.840271,465.441681 891.499512,465.180969 
	C891.903625,466.705688 890.938660,467.816284 890.037537,468.629608 
	C881.914612,475.960999 876.120117,485.671051 866.552124,491.534485 
	C864.305908,492.910980 862.458252,494.494171 862.230896,497.710876 
	C862.095276,499.629272 860.542236,501.662842 858.801819,503.058350 
	C829.576965,526.491211 804.912964,554.659241 778.265991,580.764465 
	C771.040894,587.842651 762.295349,593.641907 756.941040,602.297852 
	C753.170471,608.393494 748.565308,612.727295 742.312683,615.767334 
	C739.548462,617.111206 741.047913,620.628662 738.639465,622.808228 
	C726.539001,633.758545 714.639709,644.955688 703.118774,656.513733 
	C694.299927,665.360901 685.305969,674.054077 676.689270,683.123535 
	C670.870178,689.248352 664.731140,696.742249 655.218689,698.631714 
	C654.299561,698.814270 652.921570,700.210327 652.942627,701.011963 
	C653.052673,705.197754 649.591370,706.825073 647.429749,709.374268 
	C635.350220,723.619751 621.965454,736.615967 608.814087,749.841125 
	C602.602783,756.087402 593.848572,760.363647 590.134583,768.265198 
	C587.593994,773.670166 583.764893,777.151489 580.235596,781.309021 
	C577.682617,784.316467 573.583984,784.783203 570.798218,787.658203 
	C567.116028,791.458496 564.895630,796.086914 561.990967,800.320923 
	C561.545776,800.969910 560.825684,801.430359 560.190063,802.017395 
	C558.626099,800.767639 560.375732,799.528320 560.055115,798.224182 
	C557.524536,800.002258 556.926880,802.798584 555.298706,804.860962 
	C553.963257,806.552490 553.325867,808.550232 550.065186,808.373901 
	C548.185730,808.272278 544.787231,810.453308 545.579956,814.063965 
	C545.964478,815.815491 544.753723,816.427429 543.852661,817.307495 
	C535.149841,825.806519 526.334473,834.193726 517.773254,842.832886 
	C514.819885,845.813171 512.933044,845.644226 510.079407,842.637695 
	C495.052490,826.805603 479.743530,811.241028 464.725922,795.400269 
	C459.473907,789.860413 454.708862,783.850525 449.870667,777.933228 
	C448.778778,776.597717 447.973206,775.404358 448.564880,772.818726 
	C449.360565,769.341736 444.994659,768.504272 441.924255,767.055786 
	C442.100311,768.238342 442.227356,769.091675 442.455505,770.623962 
	C431.934570,763.729492 421.254211,758.197693 413.614105,748.339417 
	C405.032440,737.266113 395.125793,727.347168 384.885254,717.790405 
	C376.088867,709.581299 368.293152,700.402466 360.779144,691.103821 
	C357.445984,686.979004 353.632812,683.918945 349.700073,680.707153 
	C342.852570,675.114990 336.379333,669.151306 331.465851,661.694153 
	C331.109406,661.153137 330.661835,660.572266 330.113159,660.272705 
	C318.552429,653.960510 310.176147,643.712708 302.424927,633.912170 
	C295.063812,624.604858 284.956360,618.515320 278.071106,609.349731 
	C269.114075,597.426270 256.526733,589.741150 246.199936,579.494385 
	C245.135788,578.438538 243.851730,577.537109 243.020950,576.323547 
	C233.224594,562.013672 218.502075,553.136047 205.627029,542.216614 
	C201.827118,538.993896 196.840240,536.591919 196.999939,530.277161 
	C197.039627,528.708069 195.059128,528.252747 193.418152,528.385315 
	C190.109833,528.652527 188.264999,526.389160 187.693939,523.836792 
	C186.541733,518.686829 183.501709,514.473389 181.599060,509.723663 
	C180.565811,507.144348 177.954941,506.475464 176.149841,504.844025 
	C172.292374,501.357697 169.668365,496.823730 166.381638,492.850006 
	C164.092331,490.082153 162.741119,485.779602 157.692490,486.808014 
	C157.280380,486.891937 156.614120,486.112244 156.177017,485.632629 
	C147.321426,475.915283 138.371887,466.279907 129.699478,456.401306 
	C126.685066,452.967621 129.341019,449.744598 131.634827,447.281372 
	C137.761734,440.701996 144.567749,434.722870 150.368820,427.881866 
	C155.550507,421.771240 160.336121,415.158295 166.839935,410.584412 
	C172.203857,406.812134 176.526047,402.169434 181.217010,397.797363 
	C182.629776,396.480621 183.689667,395.282379 183.698563,393.201874 
	C183.724594,387.114990 186.802521,382.915558 192.100555,380.166595 
	C194.471924,378.936157 196.391357,377.214111 198.242538,375.229309 
	C204.427521,368.597961 211.700623,363.114136 218.347519,357.014404 
	C239.142654,337.931030 258.864227,317.672607 279.774994,298.722687 
	C290.039856,289.420380 299.396423,279.536011 307.818390,268.644104 
	C308.859650,267.297516 309.355835,265.428406 312.012573,266.264893 
	C313.800049,266.827698 315.687012,265.303070 316.525116,263.705078 
	C319.079712,258.834106 322.566650,255.090042 327.060944,251.794220 
	C331.563995,248.491989 334.907227,243.824402 338.164246,239.124939 
	C344.611328,229.822601 352.635345,221.900543 361.569824,214.918350 
	C362.801819,213.955536 364.095673,213.095093 363.313751,210.830093 
	C361.892151,206.712280 364.311951,203.818665 367.932190,202.982880 
	C373.908966,201.603088 377.020844,196.739059 381.205566,193.247757 
	C390.962158,185.107864 398.926392,175.235321 407.112610,165.579803 
	C414.165375,157.261185 423.912262,151.969254 431.582520,144.323410 
	C435.492981,140.425400 440.859833,137.683777 441.911713,131.452164 
	C442.008636,130.877991 442.666046,130.371613 443.121460,129.888672 
	C454.707764,117.602585 464.019989,103.319496 476.463562,91.794098 
	C487.925446,81.177925 499.513306,70.697845 510.981354,60.088303 
	C515.156494,56.225750 517.250916,60.114063 518.746643,62.577480 
	C521.925293,67.812752 526.257141,71.880791 530.518433,76.078583 
	C533.480591,78.996597 536.521301,81.753304 540.149658,83.942970 
	C542.912781,85.610497 545.777344,87.676140 545.969299,91.559624 
	C545.991150,92.002617 546.320862,92.526093 546.663879,92.843758 
	C561.228088,106.333359 574.390442,121.318932 589.843689,133.840927 
	C597.810791,140.296768 604.266052,148.113754 611.199219,155.521240 
	C613.168945,157.625793 611.425720,161.132919 613.790039,162.795715 
	C617.503296,165.407272 619.889282,169.214722 622.719543,172.518723 
	C627.091919,177.623062 633.657715,178.571411 638.655212,182.319336 
	C639.882996,183.240128 640.950745,184.194611 641.815918,185.428360 
	C648.378174,194.786545 656.899902,202.216797 665.467773,209.622589 
	C667.423767,211.313324 668.924255,213.508026 669.915894,216.849518 
	C666.144897,215.931595 664.859314,212.504303 661.983765,211.311356 
	C662.191467,213.205048 664.830994,213.907196 664.001282,216.075668 
	C658.692688,215.248367 655.882141,211.621964 657.453918,207.339340 
	C655.463013,207.193481 654.468201,202.556351 651.584290,206.392502 
	C651.416138,206.616196 649.950134,206.203110 649.382996,205.731613 
	C646.316162,203.181702 643.103333,200.633942 642.467590,196.355316 
	C642.223938,194.715576 641.407959,193.609314 640.369324,192.522354 
	C635.512024,187.438980 629.866699,183.351425 623.695251,179.072311 
	C622.488953,183.527008 620.440125,181.626511 618.258911,180.221649 
	C615.381775,178.368652 613.542053,175.542664 611.232239,173.161102 
	C601.951294,163.592087 592.684753,154.009094 583.434204,144.410706 
	C582.188171,143.117828 581.063599,141.707886 579.478455,139.887924 
	C588.438293,140.693802 589.855286,151.597137 597.897766,152.773041 
	C599.137207,150.204971 597.779846,148.976791 596.771545,147.730453 
	C593.610657,143.823334 590.089294,140.335022 585.648560,137.816223 
	C579.236450,134.179306 572.491699,130.332916 568.624023,124.161118 
	C562.557739,114.481102 553.768860,108.194679 543.942932,104.257439 
	C538.187988,101.951439 534.837830,98.665680 531.221680,94.350723 
	C525.798096,87.879089 519.716309,81.959045 513.644470,75.518105 
	C507.790466,81.911102 498.525513,84.674561 496.504517,93.807259 
	C494.234192,104.066780 484.542664,108.825882 479.962677,117.387283 
	C478.607849,119.919815 474.134247,120.602562 472.935303,124.181503 
	C468.793823,122.328079 473.124603,119.018616 471.040222,117.079956 
	C464.721375,118.541344 462.676514,120.759888 463.288971,125.553497 
	C459.943848,124.153152 452.292908,126.413414 452.216919,129.413086 
	C452.037048,136.513321 458.551392,135.972610 463.577759,137.919006 
	C449.385071,144.672714 442.519897,158.967728 430.175415,168.038177 
	C428.634399,167.410400 430.366760,165.045563 428.467743,163.576309 
	C421.604523,169.618454 416.490509,176.928192 413.343994,185.784332 
	C417.662628,180.469620 421.981232,175.154907 426.299866,169.840195 
	C425.533997,180.780197 409.804962,196.627411 398.367035,198.676300 
	C400.813110,193.926926 403.131653,189.606110 405.280365,185.202438 
	C407.448883,180.758224 409.448914,176.231812 411.741821,171.267090 
	C406.787872,173.290314 404.094421,176.649368 401.864136,180.619354 
	C398.082642,187.350601 395.427307,194.497238 393.321716,201.894821 
	C391.692963,207.617172 390.563019,208.248840 384.575958,206.999939 
	C382.119659,206.487564 381.241943,208.383331 380.402283,209.801529 
	C376.845581,215.808868 373.974396,222.277176 369.955902,227.940704 
	C365.851196,233.725693 361.833496,240.149109 353.812592,241.475113 
	C352.263184,241.731277 351.678162,242.953339 351.005798,244.083572 
	C349.732758,246.223480 348.510681,248.393707 347.083588,250.870422 
	C342.775055,249.022263 340.743103,250.475388 341.305206,255.080063 
	C341.535065,256.963013 340.242218,257.733063 338.978394,258.554199 
	C335.358521,260.906067 331.730713,263.245789 327.851440,265.754944 
	C328.833099,266.273560 329.638550,266.699066 330.759186,267.291077 
	C328.918549,271.545349 325.711090,274.352753 321.206329,277.324707 
	C322.262909,272.574646 321.799469,269.212708 316.631561,268.225220 
	C313.090057,273.858643 311.215240,280.434418 308.199249,286.452484 
	C306.932465,288.980225 307.045929,292.929138 302.454132,292.448486 
	C301.959442,292.396729 301.278503,293.538300 300.779846,294.198730 
	C293.317291,304.082855 284.225739,312.449158 275.676270,321.326538 
	C273.299133,323.794800 270.033508,324.821869 267.664886,327.203369 
	C262.640686,332.254852 256.909119,336.666595 254.079498,343.591919 
	C253.230377,345.670074 251.748795,347.564423 249.477524,348.666168 
	C248.370712,346.462067 251.308502,346.043427 250.904587,343.670837 
	C247.133408,349.380280 240.877563,352.538544 239.517746,359.496033 
	C239.332214,360.445282 238.149521,361.464935 237.177872,361.952332 
	C230.816452,365.143463 227.060501,370.906464 222.816895,376.197937 
	C221.807846,377.456116 220.970474,379.061829 217.883179,377.983673 
	C222.820511,371.835815 227.401794,365.976685 232.706024,360.670898 
	C230.739700,357.716766 229.514130,359.494873 228.117355,361.085724 
	C221.266739,368.888245 215.663025,377.586151 210.482071,386.509033 
	C205.033295,395.893127 196.584763,401.903839 188.138138,408.048828 
	C186.401077,409.312500 184.614944,410.617188 183.227722,412.227203 
	C181.282867,414.484344 180.527603,412.507782 179.246719,411.213623 
	C177.379105,413.632599 175.282120,415.711426 175.397400,419.049438 
	C175.422409,419.773865 175.048752,420.848663 174.497940,421.205872 
	C166.330017,426.503662 163.328842,436.049683 156.783783,442.614532 
	C153.277390,446.131561 149.242538,449.178894 145.185272,452.072357 
	C141.609512,454.622406 142.412674,456.199799 145.551422,458.291718 
	C147.893036,459.852386 150.876389,459.485809 153.026352,461.907990 
	C161.760452,471.747833 172.723007,479.275482 181.643585,488.968781 
	C182.631866,490.042603 183.352020,493.409851 186.500076,490.463226 
	C187.719162,489.322174 189.456268,492.161560 189.870728,493.865814 
	C191.280701,499.663605 194.571915,503.524231 200.222519,505.685608 
	C205.726288,507.790741 207.061508,513.831970 210.336121,517.949524 
	C213.877457,522.402527 218.473572,525.495667 222.194107,530.886719 
	C222.340195,526.780396 219.479507,524.872986 219.419266,520.365723 
	C224.184326,525.528503 228.830887,529.494141 230.420959,534.838440 
	C231.629089,538.899048 233.855911,540.931030 236.850906,542.950317 
	C239.522049,544.751160 241.795425,546.825134 242.202164,550.157288 
	C241.005020,551.506348 240.381638,549.800720 238.286911,550.305481 
	C253.738846,559.572083 262.885437,574.762817 276.121063,584.960449 
	C289.560364,595.315002 302.090118,606.568848 315.194763,617.531677 
	C313.091644,620.163330 313.845795,622.497620 316.159851,624.392273 
	C318.992737,626.711670 321.942780,628.891479 324.890472,631.066162 
	C327.695221,633.135376 330.840851,634.300354 331.106720,639.052979 
	C331.286591,642.268005 335.720978,643.925842 338.591980,646.686890 
	C339.813171,643.776978 341.897064,642.962891 342.988556,645.819702 
	C345.969696,653.622375 353.193390,657.481079 358.327820,663.256775 
	C362.312469,667.739075 366.343231,672.182373 370.438873,676.563171 
	C372.214417,678.462280 373.794830,680.777771 377.012115,680.441528 
	C377.652863,680.374573 378.924500,681.102844 378.993500,681.592896 
	C380.023254,688.903320 386.952423,690.818420 391.345398,694.915894 
	C395.966888,699.226440 401.176910,702.804382 403.891724,708.863403 
	C405.443237,712.326172 408.966461,714.052368 411.732330,716.426147 
	C413.006592,717.519714 415.044159,718.605713 411.907440,719.874146 
	C415.919586,725.488098 420.651642,730.078369 426.415192,733.412537 
	C432.279236,736.804749 436.815399,741.396240 441.131165,747.192017 
	C436.424713,748.563660 435.892090,744.445923 432.786896,742.504700 
	C435.226257,747.477234 438.109253,750.597290 442.723755,751.509827 
	C444.592285,751.879272 445.661560,752.860168 446.773468,754.084412 
	C450.025360,757.665039 453.629913,760.869324 457.154907,764.169617 
	C459.656586,766.511841 462.201447,769.335876 462.232880,773.293152 
	C462.247223,775.102600 463.773956,775.263306 464.970917,775.661987 
	C469.643341,777.217957 473.008514,780.260376 475.127411,784.641235 
	C476.960327,788.430786 480.919037,790.338806 484.047974,791.353882 
	C489.045593,792.975037 491.529785,796.414917 494.333832,800.020935 
	C496.508423,802.817322 498.334381,805.500183 502.073944,807.174744 
	C505.616058,808.760986 507.529846,813.262512 509.081787,817.194824 
	C509.742676,818.869385 510.076172,820.737671 511.622070,821.622864 
	C517.870422,816.934692 524.335693,812.857605 529.669434,807.093506 
	C534.273560,802.117920 539.010132,797.179749 543.542114,792.142334 
	C547.109619,788.177124 551.973633,785.857971 555.462769,781.432129 
M548.813782,793.232910 
	C544.104431,793.592346 540.426025,798.114441 542.040466,801.928894 
	C544.806335,799.295715 547.338745,796.613525 548.813782,793.232910 
M186.674057,402.069946 
	C186.749435,401.464478 188.146423,400.413757 186.493439,400.357239 
	C182.651367,400.225769 181.107346,403.203247 179.594772,406.154022 
	C181.343719,403.953857 184.358353,404.244354 186.674057,402.069946 
z"/>
<path fill="#000000" opacity="1.000000" stroke="none" 
	d="
M680.995483,327.981232 
	C686.833557,330.046753 681.805115,334.216064 682.518005,337.327515 
	C683.050659,339.652557 680.357300,342.030426 677.115051,341.864716 
	C676.126953,341.814178 675.064453,341.732666 674.181458,341.339050 
	C661.669434,335.761841 648.044067,338.378998 635.102478,335.988647 
	C630.739685,335.182800 627.879639,338.786224 624.788269,340.624237 
	C622.120117,342.210571 623.680176,345.581726 626.864868,347.180359 
	C631.521545,349.517792 636.623474,348.210785 642.256775,349.818695 
	C638.622803,346.287720 633.913696,346.427246 630.877563,343.276825 
	C639.937866,338.567169 652.474609,339.158325 654.701904,344.137115 
	C653.391663,346.036560 650.938904,345.066406 649.230835,346.333282 
	C654.119751,347.618347 658.245300,345.945862 662.035767,343.266693 
	C664.460632,341.552826 666.536621,341.406555 668.622742,343.706421 
	C668.691711,346.895996 664.811584,346.678802 663.875732,349.436798 
	C666.274536,352.815369 670.145386,353.813995 673.959961,354.531982 
	C676.665283,355.041168 678.520630,356.353119 680.040894,358.448944 
	C682.104431,361.293762 681.204529,362.518646 678.233948,364.519592 
	C660.558167,376.425873 641.014282,373.109253 621.714233,372.168427 
	C618.722229,372.022614 615.671509,371.691345 612.736877,372.094116 
	C608.641968,372.656158 605.609924,371.224060 602.167053,369.124115 
	C597.104614,366.036316 590.746948,366.201294 585.225220,364.045898 
	C583.469666,363.360657 581.085693,364.207520 579.958740,362.095581 
	C579.920959,358.922211 583.359009,360.550751 584.446777,358.568329 
	C583.499268,355.571716 580.723328,355.803619 578.423889,355.519257 
	C575.954163,355.213806 573.431702,355.364990 570.940063,355.199066 
	C568.169373,355.014648 566.775391,353.907806 568.913208,350.890991 
	C559.820923,348.361023 551.060608,345.859528 542.257202,343.520233 
	C540.140930,342.957947 537.397766,342.264862 538.090576,346.230621 
	C540.483765,347.362579 544.243896,344.971375 544.925659,348.092316 
	C545.661316,351.460449 541.469666,352.240417 539.196716,354.135162 
	C545.501465,356.599915 552.215698,356.910553 558.053162,361.105286 
	C554.087769,364.889343 548.789307,365.345093 544.114868,367.357788 
	C545.037354,368.216431 546.795593,367.176117 547.390320,369.502319 
	C543.618774,371.977509 539.110168,372.751221 534.621765,373.338531 
	C524.395630,374.676605 514.172607,376.399017 503.896698,376.895447 
	C493.686707,377.388702 490.483795,384.720917 486.446991,391.896667 
	C483.332550,397.432892 480.091614,402.865051 477.637146,408.755432 
	C476.994141,410.298584 475.340210,411.662079 472.827942,410.643616 
	C473.143463,407.740906 475.740540,405.886597 476.354218,403.223816 
	C476.786713,401.347198 477.631256,399.066864 475.347717,397.848053 
	C473.231628,396.718628 472.012451,398.513458 470.868164,399.961761 
	C469.340240,401.895569 467.825317,403.827209 465.040283,403.821411 
	C463.897522,401.465485 466.199066,400.275848 466.240082,398.097473 
	C463.171082,396.944122 463.780579,394.715973 465.083313,392.294159 
	C466.266571,390.094574 467.451385,387.886139 468.451721,385.601166 
	C469.138245,384.033020 470.766296,382.119293 468.647858,380.701447 
	C466.731049,379.418610 464.457275,378.685425 462.121613,380.360626 
	C459.830536,382.003845 458.600098,384.297913 457.596313,386.797333 
	C456.094238,390.537598 453.891479,393.662689 449.242889,396.464233 
	C450.350647,391.488556 449.197662,387.213135 453.569183,384.570618 
	C454.815277,383.817413 455.770813,382.319397 455.208893,380.688507 
	C454.682495,379.160675 453.190399,379.205444 451.820618,379.228882 
	C449.838898,379.262787 449.504791,380.598358 449.175385,382.193787 
	C447.839783,388.662537 444.224396,393.606812 439.039001,397.640961 
	C436.029480,399.982330 435.702271,403.672272 435.658875,407.194550 
	C435.583282,413.329285 431.311035,417.454987 428.421448,422.151306 
	C427.231659,424.084991 424.307129,422.677277 424.489594,420.710846 
	C424.981628,415.409180 425.888428,410.058807 427.472717,404.991028 
	C428.061920,403.106415 431.365295,402.707947 433.213104,400.893066 
	C435.339813,398.804260 436.127075,396.645569 436.669220,394.062469 
	C438.223633,386.656128 437.941132,378.665131 443.657074,372.590942 
	C445.031525,371.130310 444.087891,369.402069 443.730194,367.827362 
	C442.331146,361.668762 441.848297,355.638519 445.548492,349.986328 
	C445.960236,349.357391 446.222870,348.321625 446.012207,347.642853 
	C444.128113,341.571289 448.073425,337.099884 450.435242,332.352722 
	C451.438141,330.336975 452.571716,328.993286 452.284760,326.373596 
	C452.048187,324.214050 454.808777,322.666809 456.572266,321.170197 
	C458.353943,319.658173 460.542297,318.381805 461.232910,316.087769 
	C462.176636,312.953003 463.338257,311.022797 467.169800,312.117126 
	C469.053436,312.655060 469.544342,310.736725 469.803802,309.217316 
	C470.285187,306.398895 471.182861,303.846161 474.625610,303.912384 
	C477.689209,303.971344 481.145935,302.516876 482.812592,307.280243 
	C484.177612,311.181549 488.264984,310.847046 491.638855,310.154602 
	C494.527985,320.787628 497.934052,321.828857 506.146179,315.054688 
	C512.984558,321.104065 521.380554,319.201477 529.256897,319.315521 
	C542.582947,319.508514 555.804199,317.400818 569.100342,316.856750 
	C580.397827,316.394470 591.754211,316.014282 602.345459,320.785553 
	C605.328857,314.851227 606.101562,314.568329 611.245483,318.061035 
	C612.687134,319.039948 613.802734,319.279510 615.338745,318.649597 
	C616.717590,318.084137 618.341064,317.068390 619.578430,317.374756 
	C627.547363,319.347931 635.484375,316.698364 643.399841,317.501404 
	C645.448486,317.709229 647.351257,317.878204 649.210022,316.858856 
	C650.870239,315.948425 652.463135,315.404999 654.342529,316.620026 
	C656.643311,318.107544 658.112244,316.042053 659.494324,314.816833 
	C662.506226,312.146759 665.319824,311.613342 668.912781,313.958557 
	C671.973022,315.956024 675.341309,317.100281 679.268738,315.337341 
	C681.277527,314.435608 683.845459,314.736755 686.166748,314.589752 
	C687.623352,314.497467 690.248840,314.427673 689.850464,315.940491 
	C688.701782,320.302948 695.208252,322.301361 692.718079,326.718567 
	C692.018372,327.959839 690.904785,327.971436 689.679016,327.750854 
	C687.039856,327.275909 684.393311,327.116516 681.020935,327.844971 
	C674.392822,327.118744 671.095581,328.995178 669.124939,334.386536 
	C671.320251,335.260406 673.925476,332.713287 675.734558,335.676880 
	C677.815613,332.904419 678.505737,329.800964 680.995483,327.981232 
z"/>
<path fill="#000000" opacity="1.000000" stroke="none" 
	d="
M470.725067,489.774414 
	C467.224792,491.388489 463.790436,492.440002 461.659851,495.484192 
	C460.366028,497.332855 458.749146,496.492920 457.148315,496.198425 
	C447.349426,494.395874 437.922058,494.768860 429.549591,501.054962 
	C428.548798,501.806396 427.400024,502.518707 426.432251,501.467651 
	C422.075623,496.736420 416.785706,498.946106 411.862274,499.598938 
	C408.509216,500.043610 406.188812,499.738403 404.357574,496.524261 
	C403.432983,494.901459 401.432159,493.872650 399.869568,492.636444 
	C396.446320,489.928131 393.571899,487.016510 395.329865,482.080933 
	C395.691833,481.064667 395.459595,480.068939 394.811279,479.250854 
	C393.294830,477.337280 390.622070,476.458160 391.472076,472.824097 
	C392.613068,467.945892 393.020203,462.882843 396.587372,459.007507 
	C398.313171,457.132629 400.116272,455.648254 399.053101,452.614380 
	C398.453796,450.904083 399.779358,450.215149 401.520660,449.708557 
	C408.775055,447.598053 416.460510,448.963013 423.685120,446.775696 
	C424.787292,446.441956 426.068268,446.587433 427.091461,446.124359 
	C430.517029,444.574127 433.502380,444.226776 435.187805,448.956116 
	C439.001282,445.900360 443.686859,446.789398 447.567810,444.385864 
	C450.291687,446.651581 453.025330,449.133362 457.210815,449.940216 
	C457.056366,447.012329 458.562836,445.432068 461.423340,445.132019 
	C465.238983,444.731842 464.087097,448.795929 466.096436,450.216858 
	C469.590027,450.138824 471.903687,447.484253 475.014038,445.594055 
	C478.165466,449.187408 481.469727,448.385101 484.504547,445.261658 
	C488.904175,449.901703 490.740692,450.049316 495.715515,446.099121 
	C497.710815,444.514771 499.856140,443.296326 502.306244,442.678467 
	C503.244110,442.441956 504.740326,442.079651 505.175323,442.538849 
	C512.097107,449.846252 520.014526,445.048096 527.365784,444.108643 
	C532.589783,443.441010 537.172058,440.491913 543.090210,442.737000 
	C547.517151,444.416351 552.524597,441.673462 557.193848,440.514801 
	C560.780334,439.624786 564.295837,438.689026 567.954468,440.142700 
	C568.528259,440.370728 569.321777,440.458710 569.880005,440.251434 
	C580.991455,436.125458 592.695984,438.502777 604.062500,437.150330 
	C608.350708,436.640106 612.662109,436.719513 616.816650,435.153717 
	C620.358032,433.818939 623.667175,434.805389 626.704407,436.989288 
	C630.311340,439.582825 634.022339,441.315399 637.611755,437.329193 
	C639.958801,437.758057 638.722107,440.165985 639.621155,440.633026 
	C641.016846,441.427765 641.628235,440.802643 642.365723,440.426178 
	C647.487671,437.811310 649.953552,439.266815 649.999817,444.904572 
	C650.020508,447.423584 649.624817,449.852509 648.703125,452.234558 
	C646.686646,457.446167 647.217651,462.969879 647.679749,468.426697 
	C643.718384,469.288940 640.406982,467.464355 637.176514,468.847290 
	C634.977600,469.788635 632.360718,470.613434 632.654541,473.403656 
	C632.929016,476.009338 635.604309,475.510193 637.529907,475.702698 
	C639.525024,475.902161 641.980469,475.878540 641.911682,478.610596 
	C641.853821,480.906494 640.133423,482.452820 637.906250,483.223206 
	C634.244263,484.489960 630.466248,482.991577 626.432922,483.373871 
	C628.388855,485.821472 631.354614,483.677795 633.379395,486.040497 
	C629.210510,489.693695 623.966858,489.458588 619.119141,490.275208 
	C606.654236,492.374969 594.182983,490.423950 581.723389,490.067841 
	C566.117737,489.621887 550.632507,486.496368 534.932251,487.870667 
	C534.712280,487.889954 534.456360,487.498505 533.732422,486.893768 
	C540.415100,483.106750 547.925476,485.997375 555.074219,483.689667 
	C551.037170,479.067047 544.255310,484.005493 541.211792,479.011108 
	C540.980286,476.984375 543.132080,477.179596 543.519043,476.054535 
	C539.855225,472.006317 535.437012,472.581635 530.658264,473.140045 
	C517.560791,474.670532 504.363281,473.911591 491.210022,474.245636 
	C489.126038,474.298523 486.889374,473.760345 484.907379,475.149475 
	C486.459839,481.714966 492.878876,477.474213 496.415405,480.661469 
	C494.168213,483.418610 490.225098,486.056000 494.747375,490.434998 
	C488.856750,492.596252 483.757050,493.438843 478.480438,493.974030 
	C478.538696,486.797119 478.538696,486.797119 470.725067,489.774414 
M446.435699,458.743134 
	C444.368835,458.621460 443.523499,461.030304 441.654480,461.144287 
	C437.147095,461.419037 436.365021,464.112091 436.981628,468.140167 
	C443.100708,468.869019 447.736908,474.110291 454.772461,472.704498 
	C469.150970,469.831451 483.887726,470.097473 498.442383,468.695618 
	C504.823608,468.081055 511.160492,467.006195 518.436584,466.015137 
	C514.130920,462.747223 509.814941,462.843048 505.914856,462.146790 
	C492.986053,459.838776 480.519867,454.420380 466.958740,456.186523 
	C461.623627,456.881348 455.979126,455.938446 451.286530,459.733856 
	C449.962463,460.804779 448.437500,459.623993 446.435699,458.743134 
z"/>
<path fill="#000000" opacity="1.000000" stroke="none" 
	d="
M616.829285,549.736267 
	C619.514038,552.535828 618.059509,555.256165 617.227112,557.873718 
	C616.068970,561.515503 614.505676,564.976074 616.258789,568.966553 
	C617.212402,571.137207 615.843262,573.201111 614.502625,574.935669 
	C612.673157,577.302490 610.532043,579.440613 609.451538,582.319153 
	C609.153015,583.114563 608.700684,584.082397 607.816833,584.006409 
	C602.613708,583.558838 600.322388,587.650757 597.293579,590.594299 
	C596.320435,591.540039 595.344116,592.460999 593.864624,592.369934 
	C582.241150,591.655029 570.529480,593.372070 558.968201,591.160828 
	C556.525757,590.693726 554.132324,589.904541 551.773254,589.097412 
	C550.702209,588.730957 549.021240,588.089478 548.891846,587.349731 
	C547.734924,580.737854 542.548401,582.135986 538.459045,582.262634 
	C534.027161,582.399963 531.765686,579.300964 528.978516,577.608154 
	C528.089661,575.240601 530.997437,575.224548 530.631958,572.843140 
	C520.417969,561.211182 504.053711,563.229492 490.973267,557.095337 
	C492.013794,552.741516 495.718079,553.246033 498.565399,552.391602 
	C497.898529,550.163635 496.494904,550.358887 494.964905,550.805359 
	C488.314850,552.745667 481.673798,552.413879 474.774658,552.041565 
	C468.775726,551.717712 463.077606,550.991943 457.245087,549.721924 
	C453.417053,548.888306 449.924561,552.122437 445.795929,552.476562 
	C435.807495,553.333313 425.813812,552.632202 415.845764,553.296204 
	C411.710388,553.571655 407.713104,554.314331 403.503479,556.284424 
	C407.341492,561.428162 413.581543,555.281799 417.273193,559.919617 
	C415.020020,562.611389 410.929382,560.758240 408.698151,563.582214 
	C410.036255,566.576660 416.072784,565.480286 414.932404,570.605347 
	C414.139832,574.167236 411.562469,576.175049 408.492950,577.941895 
	C411.407074,582.924500 414.513153,586.228271 420.763489,584.882263 
	C425.451263,583.872803 430.327850,583.681885 435.134186,583.301147 
	C438.402435,583.042358 441.792175,582.796021 444.253967,586.425049 
	C440.453888,588.657349 436.456909,588.081177 432.618774,588.259399 
	C429.924896,588.384583 427.272308,588.252258 425.770630,591.236572 
	C424.809418,593.146912 422.788513,593.092651 420.954620,593.262329 
	C413.996582,593.906250 407.040619,594.572937 400.083496,595.226990 
	C398.934265,595.335083 397.227325,595.071838 396.893738,596.171570 
	C395.370911,601.191406 391.259460,600.020142 387.811310,600.119995 
	C381.807556,600.293823 375.797974,599.762512 369.946320,598.505920 
	C361.248627,596.638123 352.493317,597.310059 342.874695,597.654114 
	C345.202667,591.073181 341.596039,586.399048 339.098480,581.414612 
	C337.481049,578.186584 337.404419,575.341614 339.611420,572.109863 
	C344.502686,564.947693 345.127777,556.200867 347.789520,548.200928 
	C348.582428,545.817871 349.416779,544.285461 352.438446,543.289978 
	C355.305725,542.345337 358.921570,540.038086 358.406433,535.328674 
	C357.868225,530.407776 361.601135,527.959595 365.005646,525.514099 
	C366.906433,524.148804 369.117676,523.097351 368.518280,520.114136 
	C368.428436,519.667114 368.554688,518.799683 368.785248,518.720398 
	C374.481598,516.760498 375.308075,510.826050 378.338074,506.404144 
	C380.876923,508.741333 380.429291,511.248779 379.859283,513.615479 
	C378.788574,518.061157 376.628204,521.959290 373.519592,525.356445 
	C371.411987,527.659790 368.121399,529.229126 369.105042,533.470886 
	C369.433411,534.886902 367.239716,535.584961 366.041718,536.447510 
	C364.543060,537.526489 363.142822,538.651367 364.338501,540.864441 
	C366.953217,540.429688 365.981201,536.002441 369.316711,536.784790 
	C371.880402,543.142029 372.808472,543.619995 380.798798,542.521729 
	C384.915588,541.955933 389.021484,540.827454 393.135925,540.810120 
	C412.574280,540.728149 432.021729,540.286499 451.440033,541.866943 
	C456.737183,542.298096 462.098938,542.086670 467.425842,541.957153 
	C472.615967,541.830872 477.951508,540.818665 481.938293,545.925781 
	C482.283325,547.760010 479.460510,546.994507 479.105499,548.679626 
	C479.422150,548.950439 479.736511,549.448792 480.122009,549.511719 
	C482.690063,549.931335 482.494110,547.953064 482.862213,546.349792 
	C484.192780,540.554810 488.252899,538.490662 493.784821,540.909058 
	C495.082855,541.476562 496.238586,541.744141 497.603943,541.497986 
	C503.645416,540.409058 509.054352,541.466064 513.624023,545.932068 
	C515.212036,547.484131 517.376587,546.753540 519.874329,546.430115 
	C518.875549,541.403259 522.237549,541.563843 525.659607,541.762573 
	C543.812256,542.816467 561.927856,541.920471 580.029175,540.621216 
	C583.507629,540.371582 586.954346,539.680359 590.415894,539.194031 
	C592.975952,538.834290 595.000122,539.249695 595.812134,542.213074 
	C596.640442,545.235840 598.658752,545.167297 600.779114,543.583313 
	C602.861328,542.027771 604.877869,540.690979 607.926086,542.317810 
	C607.926086,543.975647 608.098816,545.788818 607.874573,547.551514 
	C607.674500,549.124390 607.465942,550.472900 609.013855,551.521729 
	C610.738098,552.690063 611.779907,551.666138 612.853577,550.526672 
	C613.860474,549.458130 615.065247,549.101379 616.829285,549.736267 
z"/>
<path fill="#000000" opacity="1.000000" stroke="none" 
	d="
M474.631104,591.961304 
	C462.674957,592.018311 451.183685,592.018311 439.692413,592.018311 
	C439.619049,591.728333 439.545685,591.438293 439.472321,591.148315 
	C441.265808,590.578491 443.053192,589.988464 444.854401,589.444153 
	C447.009003,588.793091 449.559082,588.837769 449.481750,585.377502 
	C449.445282,583.746216 451.010559,582.852356 452.665436,582.794800 
	C454.655182,582.725647 456.770447,582.395386 458.623047,582.917358 
	C466.889404,585.246826 475.019531,584.734924 483.224701,582.614197 
	C486.858826,581.674988 490.416046,581.821716 492.613129,586.294678 
	C489.058350,587.931091 485.450348,586.220520 482.076172,587.436829 
	C484.437073,588.228882 487.094299,587.038818 489.833252,588.980103 
	C484.830994,591.711914 479.773224,590.930725 474.631104,591.961304 
z"/>
<path fill="#000000" opacity="1.000000" stroke="none" 
	d="
M691.571655,244.140991 
	C690.592041,247.562500 688.000366,248.386597 686.224792,246.380096 
	C680.134949,239.497879 672.350647,234.386200 665.903809,227.220520 
	C669.249817,225.476044 671.175354,227.485565 673.184509,228.532455 
	C676.907532,230.472336 680.264160,233.853775 684.917725,230.420059 
	C685.876343,229.712692 687.404846,230.479889 688.104187,231.285477 
	C692.722717,236.605621 698.830505,240.758377 701.763306,248.326508 
	C698.506897,247.645142 697.491638,245.133301 695.697571,243.675858 
	C694.284363,242.527817 692.912354,240.634262 691.571655,244.140991 
z"/>
<path fill="#000000" opacity="1.000000" stroke="none" 
	d="
M707.596313,252.595276 
	C712.433411,254.970886 714.932678,259.024902 717.622253,263.085144 
	C713.020325,266.130890 710.146423,263.012909 706.878357,260.873169 
	C702.819031,258.215363 706.478210,253.140839 702.678772,250.434341 
	C705.348328,249.569778 706.020752,251.611969 707.596313,252.595276 
z"/>
<path fill="#000000" opacity="1.000000" stroke="none" 
	d="
M839.253174,388.732056 
	C842.487976,391.690521 845.455200,394.414337 848.648987,397.346100 
	C845.825256,398.928772 844.508545,397.847961 843.164307,396.444031 
	C837.819275,390.861389 832.863220,384.825317 825.175110,382.102814 
	C823.331360,381.449890 822.190613,379.637177 821.454834,377.002899 
	C830.376831,376.793579 833.191528,384.978455 839.253174,388.732056 
z"/>
<path fill="#000000" opacity="1.000000" stroke="none" 
	d="
M527.967773,591.309326 
	C519.830811,595.150452 512.409790,590.862061 504.744019,590.196655 
	C512.697083,587.201050 521.148499,590.525330 528.816895,587.840454 
	C530.236328,589.671021 529.115906,590.350952 527.967773,591.309326 
z"/>
<path fill="#000000" opacity="1.000000" stroke="none" 
	d="
M761.422302,309.545929 
	C758.929688,311.734863 760.054077,313.449036 761.432434,315.348755 
	C762.793823,317.225006 765.264465,318.487976 765.291138,321.395630 
	C758.179749,320.049713 753.472900,311.304260 756.580688,305.274963 
	C758.939880,305.682159 760.801392,306.692261 761.422302,309.545929 
z"/>
<path fill="#000000" opacity="1.000000" stroke="none" 
	d="
M552.291260,371.507141 
	C550.754944,371.673981 549.061401,371.831390 550.238220,369.993225 
	C552.660156,366.210327 561.870361,365.991821 565.637695,369.963287 
	C561.325562,372.264465 556.783875,370.555939 552.291260,371.507141 
z"/>
<path fill="#000000" opacity="1.000000" stroke="none" 
	d="
M548.144897,113.830048 
	C544.432983,110.946411 540.987000,108.289017 537.162109,105.339447 
	C543.427917,104.721573 551.701660,110.769653 553.807068,117.163269 
	C551.262817,117.214508 550.096985,115.145325 548.144897,113.830048 
z"/>
<path fill="#000000" opacity="1.000000" stroke="none" 
	d="
M728.630676,271.747375 
	C729.568970,274.360413 730.813171,276.828369 732.110168,279.422272 
	C727.074341,276.139404 723.290039,271.759735 719.982849,266.837280 
	C723.196594,267.155609 724.900574,269.925018 727.949951,271.248016 
	C728.342651,271.469391 728.630676,271.747375 728.630676,271.747375 
z"/>
<path fill="#000000" opacity="1.000000" stroke="none" 
	d="
M813.006958,354.640503 
	C814.193481,355.723572 815.643372,356.188599 815.527649,357.834900 
	C808.415344,356.126709 803.545471,355.932434 803.720947,349.215485 
	C807.208191,350.315063 809.015015,354.163757 813.006958,354.640503 
z"/>
<path fill="#000000" opacity="1.000000" stroke="none" 
	d="
M728.952271,271.940735 
	C728.630676,271.747375 728.342651,271.469391 728.282227,271.393463 
	C727.670288,269.650635 725.521606,268.847290 725.699524,266.743805 
	C731.896729,268.067169 735.548279,271.944763 734.845032,276.746552 
	C732.231995,276.033539 731.396606,273.247284 728.952271,271.940735 
z"/>
<path fill="#000000" opacity="1.000000" stroke="none" 
	d="
M312.654114,279.088501 
	C314.763824,276.477600 316.878937,277.836334 319.705841,278.345154 
	C317.095184,281.527222 314.862579,284.248474 312.220367,287.468964 
	C311.119995,284.374817 311.677612,281.899445 312.654114,279.088501 
z"/>
<path fill="#000000" opacity="1.000000" stroke="none" 
	d="
M797.690735,337.769409 
	C800.060547,339.582062 801.713379,341.561707 802.739441,344.612793 
	C799.353577,344.394287 796.567932,343.887207 794.070740,341.374939 
	C794.969299,339.939758 794.291565,337.342285 797.690735,337.769409 
z"/>
<path fill="#000000" opacity="1.000000" stroke="none" 
	d="
M379.781952,217.922028 
	C382.068909,215.021271 384.359711,212.683594 388.494843,211.199677 
	C386.204834,214.764374 385.312347,218.237869 382.422272,220.524384 
	C381.480103,221.269821 380.354706,221.916656 379.307434,220.914276 
	C378.432678,220.077011 379.071350,219.083878 379.781952,217.922028 
z"/>
<path fill="#000000" opacity="1.000000" stroke="none" 
	d="
M770.930176,316.226990 
	C768.107849,314.495941 764.880371,313.691101 763.376221,310.478729 
	C769.945312,310.310699 772.417114,312.200195 770.930176,316.226990 
z"/>
<path fill="#000000" opacity="1.000000" stroke="none" 
	d="
M732.991089,284.928375 
	C734.317017,286.843781 733.841614,288.184387 731.963135,287.142242 
	C729.036438,285.518524 725.869629,283.717163 725.068909,279.007202 
	C728.636719,280.191986 730.477661,282.767639 732.991089,284.928375 
z"/>
<path fill="#000000" opacity="1.000000" stroke="none" 
	d="
M769.611084,319.439667 
	C771.328613,320.054718 772.631042,320.679596 773.087769,322.577087 
	C771.252014,324.442749 769.499695,324.324799 768.026550,322.129974 
	C767.110413,320.764984 766.685425,319.268494 769.611084,319.439667 
z"/>
<path fill="#000000" opacity="1.000000" stroke="none" 
	d="
M449.602600,465.033203 
	C455.190582,460.664337 458.978180,460.744171 461.948608,465.902435 
	C457.384003,463.472992 453.660736,469.366058 449.602600,465.033203 
z"/>
</svg>